<?xml version="1.0" encoding="UTF-8"?>
<svg width="433px" height="120px" viewBox="0 0 433 120" version="1.1" xmlns="http://www.w3.org/2000/svg" xmlns:xlink="http://www.w3.org/1999/xlink">
    <title>AEONrv-logo-color</title>
    <desc>Created with Sketch.</desc>
    <g id="AEONrv-logo-color" stroke="none" stroke-width="1" fill="none" fill-rule="evenodd">
        <polygon id="v" fill="#CB4545" points="362 30 382.287081 30 392.143541 61.6854991 402.334928 30 422 30 400.421053 80 383.148325 80"></polygon>
        <path d="M319,30.1270718 L337.229665,30.1270718 L337.229665,38.2983425 C338.98406,34.7605716 340.794249,32.3264339 342.660287,30.9958564 C344.526325,29.6652788 346.830927,29 349.574163,29 C352.44499,29 355.586905,29.8766027 359,31.6298343 L352.971292,45.2486188 C350.67463,44.3093876 348.856466,43.839779 347.516746,43.839779 C344.9649,43.839779 342.987248,44.8729178 341.583732,46.9392265 C339.574153,49.8508433 338.569378,55.2983026 338.569378,63.281768 L338.569378,80 L319,80 L319,30.1270718 Z" id="r" fill="#CB4545"></path>
        <polygon id="N" fill="#585858" points="240 11 260.214693 11 286.594151 49.1712142 286.594151 11 307 11 307 80 286.594151 80 260.35806 42.1111869 260.35806 80 240 80"></polygon>
        <path d="M197.521739,45.0152206 C197.521739,35.771231 199.73248,26.4937454 206.384091,19.0954806 C212.688106,12.0838299 222.52558,9.66634936 229.932563,9.66634936 C229.933986,9.66634936 229.933986,15.0026105 229.932563,25.6751328 C222.47443,26.931298 218.745364,33.377994 218.745364,45.0152206 C218.745364,56.4843486 222.47443,62.8585055 229.932563,64.1376914 C229.932563,74.9039276 229.932563,80.2870457 229.932563,80.2870457 C222.513053,80.2870457 212.944899,77.8745065 206.384091,70.7316228 C199.823282,63.5887392 197.521739,53.9513411 197.521739,45.0152206 Z" id="O-2" fill="#585858" transform="translate(213.727685, 44.976698) scale(-1, -1) translate(-213.727685, -44.976698) "></path>
        <path d="M158.067437,45.0152206 C158.067437,35.771231 160.278178,26.4937454 166.929789,19.0954806 C173.233804,12.0838299 183.071278,9.66634936 190.478261,9.66634936 C190.479685,9.66634936 190.479685,15.0026105 190.478261,25.6751328 C183.020128,26.931298 179.291062,33.377994 179.291062,45.0152206 C179.291062,56.4843486 183.020128,62.8585055 190.478261,64.1376914 C190.478261,74.9039276 190.478261,80.2870457 190.478261,80.2870457 C183.058752,80.2870457 173.490597,77.8745065 166.929789,70.7316228 C160.368981,63.5887392 158.067437,53.9513411 158.067437,45.0152206 Z" id="O-1" fill="#585858" transform="translate(174.273383, 44.976698) scale(1, -1) translate(-174.273383, -44.976698) "></path>
        <polygon id="E" fill="#585858" points="94 11 151.949838 11 151.949838 25.7319236 115.671521 25.7319236 115.671521 36.6984993 149.324434 36.6984993 149.324434 50.771487 115.671521 50.771487 115.671521 64.3738063 153 64.3738063 153 80 94 80"></polygon>
        <polygon id="A-2" fill="#585858" transform="translate(224.784148, 60.058241) rotate(69.000000) translate(-224.784148, -60.058241) " points="120.3829 195.013752 205.079196 198.3054 324.258814 -112.168118 329.185395 -103.10415 214.678027 220.029896 174.071052 216.327948 167.945866 232.284601 155.629168 222.642515 158.492778 215.182555 144.973128 214.280991"></polygon>
        <polygon id="A-1" fill="#585858" points="32.6820571 80.1428571 10.8849903 80.1428571 37.0337958 10.9550095 53.9389545 10.9550095"></polygon>
    </g>
</svg>